<svg width="12" height="14" viewBox="0 0 12 14" fill="none" xmlns="http://www.w3.org/2000/svg">
<path d="M0.25168 2.05494C7.15256e-08 2.41352 0 3.47938 0 5.61113V6.66093C0 10.4196 2.82597 12.2437 4.59904 13.0182C5.08 13.2283 5.32047 13.3333 6 13.3333C6.67953 13.3333 6.92 13.2283 7.40093 13.0182C9.174 12.2437 12 10.4196 12 6.66093V5.61113C12 3.47938 12 2.41352 11.7483 2.05494C11.4967 1.69636 10.4945 1.35331 8.49007 0.667193L8.1082 0.53648C7.06333 0.178827 6.54093 0 6 0C5.45907 0 4.93667 0.178827 3.89181 0.53648L3.50994 0.667193C1.50555 1.35331 0.503353 1.69636 0.25168 2.05494Z" fill="#EADADA"/>
</svg>
