<svg width="13" height="14" viewBox="0 0 13 14" fill="none" xmlns="http://www.w3.org/2000/svg">
<path d="M1 5.61113C1 4.5389 1.00018 3.75608 1.03072 3.19528C1.04596 2.91534 1.06803 2.7078 1.09714 2.55671C1.11153 2.48206 1.1263 2.42843 1.13962 2.39103C1.15129 2.35826 1.15958 2.34441 1.16086 2.34232C1.16224 2.34064 1.17186 2.32902 1.19712 2.30848C1.22689 2.28428 1.27148 2.25327 1.33619 2.21569C1.46727 2.13956 1.654 2.05183 1.91173 1.94713C2.42806 1.73737 3.16347 1.48543 4.17186 1.14025C4.17187 1.14025 4.17187 1.14025 4.17187 1.14025L4.55374 1.00953L4.39181 0.53648L4.55374 1.00953C5.63011 0.641091 6.0615 0.5 6.5 0.5C6.9385 0.5 7.36989 0.641091 8.44627 1.00953L8.82814 1.14025C9.83654 1.48543 10.572 1.73737 11.0883 1.94713C11.346 2.05183 11.5327 2.13957 11.6638 2.21569C11.7285 2.25327 11.7731 2.28428 11.8029 2.30848C11.8282 2.32901 11.8378 2.34063 11.8391 2.34232C11.8404 2.34442 11.8487 2.35828 11.8604 2.39102C11.8737 2.42843 11.8885 2.48205 11.9029 2.5567C11.932 2.70779 11.954 2.91534 11.9693 3.19528C11.9998 3.75608 12 4.5389 12 5.61113V6.66093C12 10.1109 9.42005 11.809 7.70078 12.56C7.45314 12.6682 7.31015 12.7294 7.15094 12.7702C6.99889 12.8091 6.81334 12.8333 6.5 12.8333C6.18666 12.8333 6.00111 12.8091 5.84906 12.7702C5.68984 12.7294 5.54684 12.6682 5.29919 12.56C3.57993 11.809 1 10.1109 1 6.66093V5.61113Z" stroke="#EADADA"/>
</svg>
