<svg width="41" height="40" viewBox="0 0 41 40" fill="none" xmlns="http://www.w3.org/2000/svg">
<path d="M0 0C5.08229 9.58533 12.165 17.2731 19.8279 24.9871L20.1374 25.3072L20.1428 25.3019C22.006 27.1739 23.9022 29.0513 25.8113 30.9571C24.2017 32.2216 22.4844 33.3644 20.6948 34.3983L23.1304 36.8337L28.9962 30.9678C32.6102 33.3269 35.5082 36.4008 37.8819 40L40.2775 37.6047C36.6522 35.2579 33.4707 32.4654 31.2266 28.7376L37.1111 22.8529L34.6757 20.4176C33.7269 22.283 32.5918 24.004 31.3065 25.5899C27.5632 21.851 23.9259 18.2622 20.1987 14.8795C20.1796 14.8622 20.1618 14.8435 20.1427 14.8261C13.9886 9.24576 7.57717 4.22313 0 0Z" fill="white"/>
<path d="M5.60445 20.4175L3.17163 22.853L9.05368 28.735C6.80951 32.463 3.63062 35.2579 0.00529247 37.6047L2.40081 40C4.77447 36.4008 7.6726 33.3269 11.2865 30.9678L17.1524 36.8337L19.5878 34.3983C17.7984 33.3643 16.0811 32.2215 14.4714 30.9571C15.9964 29.435 17.5112 27.9324 19.009 26.4354L13.6847 20.9323C12.1243 22.4565 10.5603 24.0104 8.97634 25.5926C7.6901 24.0059 6.55368 22.2841 5.60445 20.4175Z" fill="white"/>
<path d="M40.2802 0C33.1919 3.95057 27.1241 8.60281 21.3324 13.7566L26.5395 18.6704C31.8151 12.9579 36.5781 6.98264 40.2802 0Z" fill="white"/>
</svg>
