<svg width="45" height="40" viewBox="0 0 45 40" fill="none" xmlns="http://www.w3.org/2000/svg">
<path d="M14.4272 0.000538191C12.1296 0.0246566 9.54558 0.80993 7.19878 2.26758C3.27973 4.70173 0.133886 8.88448 0 14.0716C2.18728 16.2701 3.53667 19.1804 4.62618 22.2674C8.21318 15.0913 14.4644 11.5973 19.2758 11.8964C18.1142 8.46763 18.3346 4.55997 18.2935 0.884754C17.3198 0.341804 16.1547 0.0501044 14.8841 0.00642539C14.7336 0.00129785 14.5803 -0.00117099 14.4271 0.000538191H14.4272ZM18.4893 13.674C14.9767 13.8477 10.1681 16.3862 6.97915 21.6591C9.36944 27.0513 12.5513 32.6392 15.9702 36.4008C18.9094 35.3656 22.8822 33.4807 26.7089 31.2345C24.844 26.8924 25.2136 22.4865 26.8603 19.0032C25.935 19.0445 25.072 18.9533 24.2668 18.7273C24.004 18.6535 23.7498 18.5634 23.5013 18.4633L23.5369 18.5255C23.0506 18.8101 22.334 19.4994 21.7505 20.3325C21.1671 21.1655 20.6991 22.1456 20.5399 22.9616L18.7981 22.6232C19.026 21.4542 19.6014 20.3071 20.2965 19.3146C20.7735 18.6338 21.2996 18.0263 21.8574 17.5523C21.2894 17.144 20.7611 16.6664 20.2728 16.1249C18.38 16.9845 16.4562 19.1062 16.16 20.8875L14.4093 20.5966C14.8271 18.0834 16.8601 15.8497 19.1512 14.6947C18.9242 14.3681 18.7052 14.0272 18.4893 13.674ZM36.1331 13.9379C36.0635 13.9381 35.9923 13.9383 35.9226 13.941C34.8071 13.9837 33.6971 14.3559 32.6348 14.9915C28.4112 17.5182 25.3638 24.4003 28.5783 31.0922L29.2668 31.7806L28.2935 32.3652C23.8781 35.0188 19.2624 37.2104 15.8782 38.3027L17.0504 40C25.8109 36.7829 37.2366 30.1665 44.6672 24.2585C43.3923 19.0737 41.3519 16.1588 39.2489 14.858C38.2279 14.2261 37.1796 13.9366 36.1332 13.9379L36.1331 13.9379Z" fill="white"/>
</svg>
